<?xml version="1.0" encoding="UTF-8" standalone="no"?>
<!-- Created with Inkscape (http://www.inkscape.org/) -->

<svg
   xmlns:dc="http://purl.org/dc/elements/1.1/"
   xmlns:cc="http://creativecommons.org/ns#"
   xmlns:rdf="http://www.w3.org/1999/02/22-rdf-syntax-ns#"
   xmlns:svg="http://www.w3.org/2000/svg"
   xmlns="http://www.w3.org/2000/svg"
   xmlns:sodipodi="http://sodipodi.sourceforge.net/DTD/sodipodi-0.dtd"
   xmlns:inkscape="http://www.inkscape.org/namespaces/inkscape"
   version="1.1"
   id="svg5542"
   width="758.47876"
   height="310.68524"
   viewBox="0 0 758.47876 310.68524"
   sodipodi:docname="tshirtlogo.svg"
   inkscape:version="0.92.5 (2060ec1f9f, 2020-04-08)">
  <metadata
     id="metadata5548">
    <rdf:RDF>
      <cc:Work
         rdf:about="">
        <dc:format>image/svg+xml</dc:format>
        <dc:type
           rdf:resource="http://purl.org/dc/dcmitype/StillImage" />
        <dc:title></dc:title>
      </cc:Work>
    </rdf:RDF>
  </metadata>
  <defs
     id="defs5546" />
  <sodipodi:namedview
     pagecolor="#ffffff"
     bordercolor="#666666"
     borderopacity="1"
     objecttolerance="10"
     gridtolerance="10"
     guidetolerance="10"
     inkscape:pageopacity="0"
     inkscape:pageshadow="2"
     inkscape:window-width="1024"
     inkscape:window-height="545"
     id="namedview5544"
     showgrid="false"
     showguides="true"
     inkscape:guide-bbox="true"
     inkscape:zoom="0.64"
     inkscape:cx="587.30738"
     inkscape:cy="113.00937"
     inkscape:window-x="0"
     inkscape:window-y="27"
     inkscape:window-maximized="1"
     inkscape:current-layer="svg5542" />
  <rect
     style="opacity:1;fill:#f2f2f2;fill-opacity:0.98963731;stroke:none;stroke-width:1.03035879;stroke-miterlimit:4;stroke-dasharray:none"
     id="rect75"
     width="758.47876"
     height="310.68524"
     x="0"
     y="0" />
  <g
     id="g5578"
     style="fill:#800000"
     transform="translate(-219.83769,-112.45423)">
    <g
       id="g5588"
       transform="rotate(-1.3915604,358.22054,259.86037)"
       style="fill:#800000">
      <path
         style="fill:#800000;stroke:none;stroke-width:2.8929584px;stroke-linecap:butt;stroke-linejoin:miter;stroke-opacity:1"
         d="M 396.875,339.36496 V 269.5398 l -65.35393,-9.07774 4.782,34.27094 28.93452,2.391 3.74243,45.42894 z"
         id="path5552"
         inkscape:connector-curvature="0"
         sodipodi:nodetypes="ccccccc" />
      <path
         style="fill:#800000;stroke:none;stroke-width:2.8929584px;stroke-linecap:butt;stroke-linejoin:miter;stroke-opacity:1"
         d="m 321.16008,177.1678 75.71492,38.25596 v 37.75192 l -77.30891,-19.42095 z"
         id="path5554"
         inkscape:connector-curvature="0"
         sodipodi:nodetypes="ccccc" />
    </g>
  </g>
  <path
     style="fill:#800000;stroke:none;stroke-width:2.8929584px;stroke-linecap:butt;stroke-linejoin:miter;stroke-opacity:1"
     d="m 579.33289,226.0673 2.67091,-123.91241 77.36913,-36.59717 -1.10374,51.20602 -48.04651,13.31614 -2.12222,23.16335 36.57042,-4.32122 -7.21592,30.0079 -31.65747,-0.55052 -1.99383,21.76208 16.96987,2.32174 -7.69232,27.52021 z"
     id="path5558"
     inkscape:connector-curvature="0"
     sodipodi:nodetypes="ccccccccccccc" />
  <g
     aria-label="NFINIT"
     style="font-style:normal;font-variant:normal;font-weight:bold;font-stretch:normal;font-size:43.30191803px;line-height:1.25;font-family:Impact;-inkscape-font-specification:'Impact Bold';letter-spacing:0px;word-spacing:0px;fill:#808080;fill-opacity:1;stroke:none;stroke-width:1.62382185"
     id="text53"
     transform="translate(0.6854216,-216.93397)">
    <path
       inkscape:connector-curvature="0"
       d="m 260.48636,319.86848 v 123.30898 h -28.08705 l -16.66954,-55.94574 v 55.94574 H 188.93671 V 319.86848 h 26.79306 l 17.96353,55.48904 v -55.48904 z"
       style="font-size:155.88690186px;fill:#808080;stroke-width:1.62382185"
       id="path2446" />
    <path
       inkscape:connector-curvature="0"
       d="m 273.42619,320.02072 h 54.27118 v 24.66179 h -22.30218 v 23.36781 h 19.94256 v 23.36782 h -19.94256 v 51.75932 h -31.969 z"
       style="font-size:155.88690186px;fill:#808080;stroke-width:1.62382185"
       id="path2448" />
    <path
       inkscape:connector-curvature="0"
       d="m 367.43027,319.86848 v 123.30898 h -31.969 V 319.86848 Z"
       style="font-size:155.88690186px;fill:#808080;stroke-width:1.62382185"
       id="path2450" />
    <path
       inkscape:connector-curvature="0"
       d="m 451.91974,319.86848 v 123.30898 h -28.08705 l -16.66954,-55.94574 v 55.94574 H 380.37009 V 319.86848 h 26.79306 l 17.96353,55.48904 v -55.48904 z"
       style="font-size:155.88690186px;fill:#808080;stroke-width:1.62382185"
       id="path2452" />
    <path
       inkscape:connector-curvature="0"
       d="M 496.82858,319.86848 V 443.17746 H 464.85959 V 319.86848 Z"
       style="font-size:155.88690186px;fill:#808080;stroke-width:1.62382185"
       id="path2454" />
    <path
       inkscape:connector-curvature="0"
       d="m 574.31532,320.02072 v 24.66179 h -19.02916 v 98.49495 H 523.31717 V 344.68251 H 504.288 v -24.66179 z"
       style="font-size:155.88690186px;fill:#808080;stroke-width:1.62382185"
       id="path2456" />
  </g>
  <g
     aria-label="a      n      d          b      e      y      o      n      d"
     style="font-style:normal;font-variant:normal;font-weight:bold;font-stretch:normal;font-size:26.66666603px;line-height:1.25;font-family:Impact;-inkscape-font-specification:'Impact Bold';letter-spacing:0px;word-spacing:0px;fill:#000000;fill-opacity:1;stroke:none"
     id="text57"
     transform="translate(-22.533325,-216.93397)">
    <path
       d="m 242.30396,470.66699 h -4.44141 v -1.03125 q 0,-1.80469 0.43359,-2.8125 0.38672,-0.9375 1.65235,-1.69922 1.30078,-0.77343 3.26953,-0.77343 2.3789,0 3.62109,0.84375 1.21875,0.85546 1.46485,2.08593 0.24609,1.26563 0.24609,5.10938 v 7.80469 h -4.61719 v -1.39454 q -0.44531,0.86719 -1.10156,1.25391 -0.70313,0.43359 -1.62891,0.43359 -1.21875,0 -2.28515,-0.72656 -1.05469,-0.6914 -1.05469,-3.04687 v -1.27735 q 0,-1.72265 0.55078,-2.36718 0.57422,-0.64454 2.74219,-1.46485 2.29687,-0.8789 2.49609,-1.2539 0.16406,-0.29297 0.16406,-1.26563 0,-1.24219 -0.17578,-1.60547 -0.16406,-0.36328 -0.60937,-0.36328 -0.49219,0 -0.60938,0.30469 -0.11718,0.375 -0.11718,1.61719 z m 1.51171,2.13281 q -1.13671,0.84375 -1.3125,1.39454 -0.19921,0.5625 -0.19921,1.60546 0,1.26563 0.16406,1.5586 0.1875,0.36328 0.63281,0.36328 0.45703,0 0.59766,-0.29297 0.11718,-0.26953 0.11718,-1.42969 z"
       style="font-size:24px"
       id="path2459"
       inkscape:connector-curvature="0" />
    <path
       d="m 280.30786,464.64355 -0.0937,1.44141 q 0.50391,-0.85547 1.27735,-1.28906 0.77343,-0.44531 1.69921,-0.44531 1.21875,0 1.99219,0.57421 0.79688,0.58594 1.00781,1.44141 0.22266,0.96094 0.22266,2.92969 v 10.89844 h -4.73437 v -10.78125 q 0,-1.65235 -0.0937,-1.9336 -0.10547,-0.36328 -0.59766,-0.36328 -0.50391,0 -0.63281,0.41016 -0.14063,0.38672 -0.14063,2.15625 v 10.51172 h -4.72265 v -15.55079 z"
       style="font-size:24px"
       id="path2461"
       inkscape:connector-curvature="0" />
    <path
       d="m 324.12427,461.20996 v 18.98438 h -4.72266 v -1.125 q -0.67969,0.67968 -1.4414,1.05468 -0.78516,0.36328 -1.5586,0.36328 -1.10156,0 -1.92187,-0.60937 -0.82032,-0.5625 -1.03125,-1.3125 -0.2461,-0.75 -0.2461,-2.49609 v -7.27735 q 0,-1.78125 0.2461,-2.54297 0.19922,-0.72656 1.05468,-1.32422 0.84375,-0.57421 1.94532,-0.57421 0.83203,0 1.60547,0.33984 0.70312,0.29297 1.34765,0.9375 v -4.41797 z m -4.72266,7.34766 q 0,-0.86719 -0.15234,-1.16016 -0.17578,-0.28125 -0.59766,-0.28125 -0.39844,0 -0.55078,0.25781 -0.16406,0.2461 -0.16406,1.1836 v 7.6289 q 0,0.9375 0.14062,1.21875 0.12891,0.31641 0.55078,0.31641 0.45704,0 0.59766,-0.33984 0.17578,-0.29297 0.17578,-1.62891 z"
       style="font-size:24px"
       id="path2463"
       inkscape:connector-curvature="0" />
    <path
       d="m 372.74536,461.20996 v 4.48828 q 0.63281,-0.70312 1.32422,-1.00781 0.77344,-0.33984 1.55859,-0.33984 0.98438,0 1.67579,0.3164 0.70312,0.30469 1.10156,0.86719 0.33984,0.49219 0.45703,1.07812 0.082,0.63282 0.082,2.22657 v 7.00781 q 0,1.71094 -0.24609,2.54297 -0.21094,0.85547 -1.05469,1.46484 -0.89063,0.63281 -2.01563,0.63281 -0.83203,0 -1.53515,-0.36328 -0.75,-0.39843 -1.34766,-1.10156 l -0.28125,1.17188 h -4.4414 v -18.98438 z m 1.46485,7.85156 q 0,-1.21875 -0.16407,-1.58203 -0.14062,-0.36328 -0.59765,-0.36328 -0.44532,0 -0.5625,0.30469 -0.14063,0.32812 -0.14063,1.64062 v 6.69141 q 0,1.3125 0.16406,1.60547 0.15235,0.36328 0.58594,0.36328 0.4336,0 0.57422,-0.35156 0.14063,-0.36328 0.14063,-1.75782 z"
       style="font-size:24px"
       id="path2465"
       inkscape:connector-curvature="0" />
    <path
       d="m 416.53833,472.68262 h -6.14062 v 3.38672 q 0,1.07812 0.16406,1.33593 0.1289,0.31641 0.57422,0.31641 0.57422,0 0.75,-0.41016 0.16406,-0.36328 0.16406,-1.55859 v -2.0625 h 4.48828 v 1.14844 q 0,1.5 -0.16406,2.23828 -0.17578,0.76172 -0.86719,1.6289 -0.67969,0.89063 -1.67578,1.32422 -1.05469,0.45703 -2.58984,0.45703 -1.45313,0 -2.64844,-0.43359 -1.14844,-0.44531 -1.76953,-1.20703 -0.67969,-0.78516 -0.91407,-1.65234 -0.24609,-0.89063 -0.24609,-2.63672 v -4.53516 q 0,-1.99219 0.55078,-3.24609 0.5625,-1.17188 1.80469,-1.79297 1.30078,-0.63281 2.90625,-0.63281 1.96875,0 3.28125,0.77343 1.27734,0.76172 1.80469,1.99219 0.52734,1.23047 0.52734,3.52734 z m -4.74609,-2.51953 v -1.125 q 0,-1.23047 -0.12891,-1.5586 -0.14062,-0.36328 -0.52734,-0.36328 -0.51563,0 -0.6211,0.28125 -0.11718,0.375 -0.11718,1.64063 v 1.125 z"
       style="font-size:24px"
       id="path2467"
       inkscape:connector-curvature="0" />
    <path
       d="m 453.31177,464.64355 -1.34766,11.25 q -0.29297,2.34375 -0.52734,3.65625 -0.26953,0.9961 -0.76172,1.60547 -0.48047,0.6211 -1.38281,0.91407 -0.38672,0.14062 -1.125,0.22265 -0.73828,0.082 -1.72266,0.082 h -2.88281 v -2.49609 q 1.04297,0 1.41797,-0.11719 0.30468,-0.10547 0.30468,-0.48047 0,-0.1875 -0.28125,-1.6289 l -2.58984,-13.00782 h 4.28906 l 1.5586,10.48829 0.75,-10.48829 z"
       style="font-size:24px"
       id="path2469"
       inkscape:connector-curvature="0" />
    <path
       d="m 490.16724,470.11621 v 3.78516 q 0,2.09765 -0.21094,3.08203 -0.19922,0.98437 -0.89063,1.8164 -0.6914,0.87891 -1.78125,1.27735 -1.13671,0.41015 -2.49609,0.41015 -1.51172,0 -2.66016,-0.36328 -1.0664,-0.32812 -1.6875,-1.01953 -0.60937,-0.70312 -0.85546,-1.72265 -0.26954,-1.05469 -0.26954,-2.95313 v -3.97266 q 0,-2.14453 0.48047,-3.38671 0.46875,-1.21875 1.67578,-1.96875 1.21875,-0.75 3.12891,-0.75 1.52344,0 2.73047,0.48046 1.13672,0.46875 1.78125,1.25391 0.57422,0.70313 0.84375,1.55859 0.21094,0.82032 0.21094,2.47266 z m -4.72266,-1.18359 q 0,-1.16016 -0.12891,-1.51172 -0.14062,-0.30469 -0.55078,-0.30469 -0.43359,0 -0.57422,0.30469 -0.14062,0.32812 -0.14062,1.51172 v 7.01953 q 0,1.11328 0.14062,1.42969 0.14063,0.33984 0.55079,0.33984 0.44531,0 0.57421,-0.31641 0.12891,-0.29297 0.12891,-1.28906 z"
       style="font-size:24px"
       id="path2471"
       inkscape:connector-curvature="0" />
    <path
       d="m 521.86646,464.64355 -0.0937,1.44141 q 0.5039,-0.85547 1.27734,-1.28906 0.77344,-0.44531 1.69922,-0.44531 1.21875,0 1.99219,0.57421 0.79687,0.58594 1.00781,1.44141 0.22265,0.96094 0.22265,2.92969 v 10.89844 h -4.73437 v -10.78125 q 0,-1.65235 -0.0937,-1.9336 -0.10547,-0.36328 -0.59766,-0.36328 -0.5039,0 -0.63281,0.41016 -0.14062,0.38672 -0.14062,2.15625 v 10.51172 h -4.72266 v -15.55079 z"
       style="font-size:24px"
       id="path2473"
       inkscape:connector-curvature="0" />
    <path
       d="m 565.68286,461.20996 v 18.98438 h -4.72265 v -1.125 q -0.67969,0.67968 -1.44141,1.05468 -0.78516,0.36328 -1.55859,0.36328 -1.10157,0 -1.92188,-0.60937 -0.82031,-0.5625 -1.03125,-1.3125 -0.24609,-0.75 -0.24609,-2.49609 v -7.27735 q 0,-1.78125 0.24609,-2.54297 0.19922,-0.72656 1.05469,-1.32422 0.84375,-0.57421 1.94531,-0.57421 0.83203,0 1.60547,0.33984 0.70312,0.29297 1.34766,0.9375 v -4.41797 z m -4.72265,7.34766 q 0,-0.86719 -0.15235,-1.16016 -0.17578,-0.28125 -0.59765,-0.28125 -0.39844,0 -0.55079,0.25781 -0.16406,0.2461 -0.16406,1.1836 v 7.6289 q 0,0.9375 0.14063,1.21875 0.1289,0.31641 0.55078,0.31641 0.45703,0 0.59765,-0.33984 0.17579,-0.29297 0.17579,-1.62891 z"
       style="font-size:24px"
       id="path2475"
       inkscape:connector-curvature="0" />
  </g>
</svg>
